<svg xmlns="http://www.w3.org/2000/svg" width="150" height="50" viewBox="0,0,150,50"><path fill="#444" d="M83.25 36.91L83.34 36.99L83.29 36.94Q84.47 37.90 85.88 37.74L85.80 37.66L85.81 37.68Q88.77 37.89 89.42 34.54L89.36 34.49L89.34 34.47Q90.05 31.41 90.05 28.02L89.94 27.91L89.92 25.30L90.00 25.38Q90.03 24.16 89.69 22.90L89.75 22.96L89.58 22.80Q88.42 25.17 86.44 29.93L86.55 30.04L86.54 30.03Q84.51 34.73 83.29 36.94ZM88.23 20.38L88.22 20.36L88.20 20.34Q87.20 19.69 85.87 19.69L85.79 19.62L85.78 19.60Q84.39 19.55 83.29 20.46L83.27 20.44L83.31 20.48Q82.09 21.28 81.90 22.76L81.90 22.76L81.84 22.70Q81.66 24.24 81.62 25.72L81.62 25.72L81.63 25.73Q81.50 25.60 81.50 28.46L81.47 28.43L81.60 28.55Q81.51 30.82 81.97 34.44L82.08 34.55L82.10 34.57Q83.99 29.80 88.36 20.51ZM89.86 39.25L89.82 39.22L89.80 39.20Q88.03 40.09 85.71 40.09L85.68 40.06L84.08 40.09L84.23 40.24Q80.88 40.13 79.73 38.41L79.72 38.40L79.68 38.36Q78.99 36.30 78.91 33.37L78.79 33.25L78.88 33.33Q78.91 31.65 78.83 28.19L78.84 28.19L78.75 28.10Q78.83 27.00 78.68 23.95L78.64 23.92L78.55 23.83Q78.46 21.53 78.77 19.55L78.75 19.53L78.88 19.67Q79.35 16.71 83.69 16.48L83.65 16.44L83.65 16.45Q84.39 16.38 85.72 16.42L85.80 16.50L85.65 16.35Q91.44 16.62 92.51 20.08L92.50 20.08L92.43 20.01Q93.02 21.89 92.98 23.75L93.07 23.84L93.03 23.80Q92.91 28.74 92.83 29.96L92.94 30.07L92.95 30.08Q92.62 33.75 92.31 35.04L92.45 35.18L92.49 35.22Q91.76 38.25 89.85 39.24ZM94.73 38.95L94.86 39.07L94.72 38.93Q95.01 36.22 94.97 34.43L94.90 34.36L94.89 29.82L94.81 29.74Q94.93 26.92 94.39 21.40L94.22 21.22L94.29 21.30Q93.77 19.48 92.47 18.72L92.40 18.65L92.54 18.78Q90.98 16.23 85.80 16.08L85.76 16.04L85.76 16.04Q84.83 15.95 83.50 15.99L83.59 16.08L83.50 15.99Q79.03 16.12 78.53 19.24L78.43 19.14L78.48 19.19Q78.13 21.55 78.25 23.64L78.15 23.54L78.31 23.71Q78.51 27.94 78.47 31.29L78.60 31.41L78.52 31.34Q78.49 35.03 78.60 36.06L78.55 36.01L78.63 36.09Q78.93 39.09 80.45 39.89L80.53 39.97L80.43 39.87Q82.09 42.26 86.09 42.52L86.05 42.48L86.02 42.46Q89.66 42.74 90.30 42.70L90.17 42.57L90.15 42.54Q93.14 42.53 94.28 40.93L94.21 40.86L94.26 40.91Q94.81 40.28 94.89 39.10ZM86.10 37.21L86.11 37.22L86.15 37.25Q86.93 35.90 88.00 33.20L88.03 33.23L89.75 29.01L89.66 28.92Q89.66 30.60 89.28 33.95L89.31 33.98L89.21 33.88Q88.53 36.74 86.13 37.24ZM84.18 24.97L84.29 25.07L84.15 24.93Q84.62 23.16 85.30 22.59L85.33 22.62L85.44 22.72Q85.82 22.23 87.11 22.04L87.07 22.00L87.05 21.98Q85.40 25.70 83.54 30.34L83.45 30.25L83.59 30.39Q83.49 27.59 84.18 24.97Z"/><path fill="#222" d="M117.14 40.15L117.08 40.09L114.99 40.29L114.99 40.28Q114.61 40.36 113.64 40.42L113.59 40.36L113.61 40.38Q112.68 40.49 112.19 40.49L112.16 40.46L112.09 40.39Q110.47 40.40 109.44 39.57L109.36 39.48L109.44 39.56Q110.23 38.45 111.86 36.32L111.99 36.44L111.81 36.27Q113.12 37.88 115.33 37.65L115.31 37.63L115.44 37.77Q116.22 37.51 116.86 36.86L116.91 36.91L116.92 36.92Q117.50 36.21 117.39 35.33L117.39 35.33L117.40 35.34Q117.31 30.76 117.38 26.19L117.40 26.20L117.35 26.16Q117.40 21.56 117.93 16.96L118.01 17.04L118.03 17.06Q120.01 16.91 122.15 15.88L122.12 15.86L122.11 15.84Q120.18 22.52 120.18 29.75L120.20 29.77L120.27 29.84Q120.22 33.33 120.67 36.83L120.56 36.72L120.61 36.76Q120.66 37.08 120.66 37.42L120.76 37.53L120.82 37.58Q120.79 38.13 120.56 38.66L120.49 38.58L120.57 38.67Q120.01 39.94 117.20 40.20ZM122.14 43.06L121.96 42.88L122.35 42.92L122.59 42.74L122.96 42.73L122.99 42.76Q123.31 42.51 123.38 42.39L123.32 42.33L123.32 42.33Q123.59 41.23 123.32 40.24L123.22 40.14L123.20 40.11Q121.90 34.36 122.17 28.01L122.23 28.07L122.10 27.94Q122.43 21.92 124.22 16.01L124.23 16.03L124.09 15.88Q123.40 16.71 122.14 17.44L122.09 17.38L122.13 17.43Q122.30 16.64 122.72 15.12L122.57 14.97L122.59 14.99Q120.08 16.32 117.41 16.63L117.39 16.61L117.52 16.73Q117.09 21.06 117.01 26.01L117.05 26.05L117.13 26.13Q116.90 31.88 116.98 35.30L117.13 35.45L117.12 35.44Q117.20 37.24 115.45 37.39L115.38 37.32L115.38 37.32Q113.55 37.32 111.87 35.68L112.06 35.87L111.99 35.80Q109.86 38.24 108.91 39.80L109.04 39.93L108.98 39.86Q109.69 40.58 110.72 40.81L110.58 40.67L110.64 40.73Q110.59 40.90 110.32 41.13L110.36 41.17L110.28 41.09Q111.78 42.10 113.76 42.37L113.65 42.26L113.75 42.36Q114.15 42.41 117.45 42.72L117.38 42.65L117.44 42.72Q120.70 42.99 122.07 42.99Z"/><path d="M13 6 C58 35,90 32,136 41" stroke="#666" fill="none"/><path fill="#222" d="M26.88 40.25L26.88 40.25L24.33 33.25L24.34 33.26Q20.02 20.71 14.08 14.32L14.11 14.35L14.04 14.28Q16.20 15.48 18.79 16.09L18.62 15.92L18.80 16.10Q23.86 22.30 28.20 35.06L28.14 35.00L28.28 35.14Q31.29 26.99 31.97 25.39L31.99 25.41L31.84 25.26Q34.33 19.75 37.15 16.44L37.20 16.50L37.23 16.53Q39.25 16.11 41.87 15.23L41.80 15.16L41.87 15.23Q37.34 19.87 34.30 27.11L34.15 26.96L34.26 27.07Q32.85 30.73 29.16 40.25L29.09 40.18L29.12 40.21Q28.49 40.14 27.91 40.10L27.98 40.17L28.02 40.21Q27.42 40.18 26.85 40.22ZM31.76 42.54L31.91 42.69L31.83 42.61Q34.72 32.71 36.28 28.67L36.09 28.49L36.15 28.54Q39.28 20.98 43.70 16.10L43.58 15.99L43.57 15.97Q42.49 16.30 40.39 17.02L40.57 17.20L41.69 15.85L41.66 15.81Q42.17 15.07 42.78 14.43L42.72 14.37L42.74 14.39Q40.01 15.46 37.00 16.03L36.91 15.94L37.00 16.03Q32.52 21.26 28.64 32.72L28.68 32.76L28.79 32.87Q25.08 22.69 21.88 18.31L21.88 18.30L21.79 18.21Q21.53 18.26 20.65 18.11L20.55 18.01L20.57 18.03Q20.30 17.61 18.71 15.55L18.79 15.64L18.77 15.62Q15.84 14.93 13.13 13.52L13.04 13.43L13.21 13.59Q19.67 20.52 24.05 33.31L24.19 33.44L24.04 33.29Q25.38 37.07 26.56 40.65L26.42 40.52L26.53 40.62Q26.81 40.60 27.65 40.48L27.69 40.53L27.70 40.54Q28.00 41.17 28.68 42.51L28.68 42.51L28.79 42.62Q29.60 42.51 30.32 42.59L30.34 42.60L30.24 42.51Q31.06 42.60 31.82 42.60Z"/><path fill="#333" d="M53.21 33.36L53.16 33.32L53.21 33.36Q52.99 36.11 51.81 40.75L51.76 40.71L51.78 40.73Q50.02 41.29 48.42 42.09L48.37 42.04L48.46 42.13Q51.02 35.06 50.76 27.63L50.70 27.58L50.87 27.75Q50.49 20.25 47.40 13.51L47.33 13.43L47.45 13.55Q49.35 14.77 51.22 15.34L51.26 15.39L51.25 15.38Q53.40 22.36 53.40 29.03L53.46 29.08L53.37 28.99Q53.47 30.54 53.39 32.02L53.28 31.91L53.24 31.87Q54.46 30.73 59.67 25.78L59.75 25.85L59.57 25.67Q60.77 25.77 61.76 25.69L61.75 25.68L63.81 25.50L63.77 25.46Q60.78 28.64 56.48 32.41L56.46 32.39L56.42 32.35Q59.73 35.05 66.20 40.87L66.12 40.79L66.16 40.83Q63.60 40.10 60.63 39.91L60.43 39.71L60.56 39.83Q57.96 37.66 53.09 33.24ZM62.98 42.41L62.98 42.41L63.10 42.53Q67.82 43.36 70.94 45.31L70.88 45.24L70.89 45.26Q69.68 43.93 67.05 41.53L67.05 41.53L67.04 41.52Q67.26 41.59 67.52 41.70L67.59 41.77L67.56 41.74Q65.48 39.73 63.23 37.82L63.26 37.85L58.81 33.94L58.91 34.04Q63.75 29.70 66.19 26.81L66.23 26.85L66.13 26.75Q65.05 26.96 62.57 27.23L62.52 27.18L62.51 27.16Q64.05 25.66 64.73 24.82L64.87 24.96L64.84 24.93Q61.93 25.29 59.45 25.29L59.45 25.29L59.59 25.43Q58.04 26.58 55.30 29.25L55.43 29.38L55.31 29.26Q55.33 23.49 54.34 17.66L54.35 17.68L54.35 17.67Q53.72 17.58 52.24 17.31L52.19 17.26L52.22 17.30Q52.14 16.65 51.68 15.16L51.67 15.15L51.61 15.08Q48.94 14.24 46.69 12.68L46.81 12.80L46.77 12.76Q50.06 19.44 50.41 27.55L50.40 27.54L50.52 27.66Q50.77 35.49 47.76 42.73L47.77 42.73L47.75 42.71Q48.50 42.48 49.84 41.83L49.91 41.90L49.79 41.79Q49.52 42.57 48.87 44.02L49.02 44.17L48.94 44.09Q51.84 43.07 53.97 42.69L53.86 42.57L53.94 42.66Q54.57 40.20 55.07 35.94L54.94 35.81L54.91 35.78Q57.61 38.15 63.06 42.49Z"/></svg>